<?xml version="1.0"?>
<svg width="1024" height="1024" xmlns="http://www.w3.org/2000/svg" xmlns:svg="http://www.w3.org/2000/svg">
 <g class="layer">
  <title>Layer 1</title>
  <g id="svg_8">
   <g id="svg_9">
    <path d="m224.34,413.99c0,-40 -32.03,-54.08 -66.07,-54.08c-45.65,0 -83.1,15.52 -117.91,31.68l-23.83,-73.76c38.84,-18.24 92.69,-38.72 156.75,-38.72c100.12,0 148.55,52 148.55,125.12c0,127.68 -170.37,163.52 -199,261.12l205.03,0l0,81.44l-326.35,0c18.41,-228.16 222.83,-241.44 222.83,-332.79" fill="#0065A3" id="svg_5"/>
    <path d="m471.77,559.43l40.85,0l0,-49.92c0,-35.84 2.63,-77.28 4.02,-86.4l-101.51,138.4a1113.21,1151.02 0 0 1 56.64,-2.08zm-160.16,16.16l224.84,-295.03l66.85,0l0,278.71l66.69,0l0,77.28l-66.69,0l0,110.24l-90.68,0l0,-110.24l-201.01,0l0,-61.12l0,0.16zm560.47,-23.2a116.98,120.96 0 1 1 0,-242.08a116.98,120.96 0 1 1 0,242.08m0,-276.63c-83.1,0 -150.41,69.6 -150.41,155.52c0,85.92 67.31,155.68 150.41,155.68c83.1,0 150.41,-69.76 150.41,-155.68c0,-85.92 -67.31,-155.52 -150.41,-155.52" fill="#0065A3" id="svg_6"/>
    <path d="m888.79,413.99l50.14,0l0,34.56l-83.56,0l0,-86.4l33.42,0l0,51.84z" fill="#0065A3" id="svg_7"/>
   </g>
  </g>
 </g>
</svg>