<svg clip-rule="evenodd" fill-rule="evenodd" stroke-linejoin="round" stroke-miterlimit="2" viewBox="0 0 136 136" xmlns="http://www.w3.org/2000/svg"><g transform="translate(0 3.5)"><path d="m0 0h136v129h-136z" fill="#f5c400" transform="matrix(1 0 0 1.05396 0 -3.48012)"/><path d="m47.89 48.264s.06 8.54 4.445 17.372c4.505 8.501 10.716 13.962 15.84 16.137 5.294-2.475 10.409-6.771 13.2-11.399h-14.534c-3.761-3.117-6.72-8.288-7.4-14.265h42.639c-2.103 9.61-6.564 18.349-10.815 23.914-5.899 7.717-13.899 13.606-23.059 16.977h-.134c-15.293-6.093-23.52-15.691-28.949-26.519-3.482-6.94-7.123-19.54-7.123-36.481h72c.012 4.771-.309 9.537-.96 14.264z" fill="#111820" fill-rule="nonzero"/></g></svg>